<!DOCTYPE svg PUBLIC "-//W3C//DTD SVG 1.1//EN" "http://www.w3.org/Graphics/SVG/1.1/DTD/svg11.dtd">
<!-- Uploaded to: SVG Repo, www.svgrepo.com, Transformed by: SVG Repo Mixer Tools -->
<svg version="1.1" id="Icons" xmlns="http://www.w3.org/2000/svg" xmlns:xlink="http://www.w3.org/1999/xlink" viewBox="0 0 32 32" xml:space="preserve" width="800px" height="800px" fill="#000000">
<g id="SVGRepo_bgCarrier" stroke-width="0"/>
<g id="SVGRepo_tracerCarrier" stroke-linecap="round" stroke-linejoin="round"/>
<g id="SVGRepo_iconCarrier"> <style type="text/css"> .st0{fill:none;stroke:#000000;stroke-width:2;stroke-linecap:round;stroke-linejoin:round;stroke-miterlimit:10;} </style> <path d="M19.4,16l7.4-7.4c0.4-0.4,0.4-0.9,0.1-1.3C24.2,3.9,20.3,2,16,2C8.3,2,2,8.3,2,16s6.3,14,14,14c4.3,0,8.2-1.9,10.9-5.2 c0.3-0.4,0.3-1-0.1-1.3L19.4,16z M14,14c-1.7,0-3-1.3-3-3s1.3-3,3-3s3,1.3,3,3S15.7,14,14,14z"/> </g>
</svg>